<?xml version="1.0" standalone="no"?><!DOCTYPE svg PUBLIC "-//W3C//DTD SVG 1.1//EN" "http://www.w3.org/Graphics/SVG/1.1/DTD/svg11.dtd"><svg t="1562211357072" class="icon" viewBox="0 0 1024 1024" version="1.1" xmlns="http://www.w3.org/2000/svg" p-id="26474" xmlns:xlink="http://www.w3.org/1999/xlink" width="32" height="32"><defs><style type="text/css"></style></defs><path d="M425.984 596.650667l40.675556-37.319111a56.888889 56.888889 0 0 1 80.440888 0l46.250667 46.250666-0.995555 0.995556 147.057777 147.057778 160.938667-160.881778-44.600889-44.600889-48.355555 48.355555a56.888889 56.888889 0 0 1-80.469334 0L405.134222 274.688a56.888889 56.888889 0 0 1 0-80.469333l120.661334-120.661334a56.888889 56.888889 0 0 1 80.469333 0l321.792 321.792a56.888889 56.888889 0 0 1 0 80.469334L896 507.932444l44.600889 44.600889a56.888889 56.888889 0 0 1 0 80.440889L779.662222 793.884444a56.888889 56.888889 0 0 1-80.469333 0l-190.350222-190.350222 0.995555-1.024-2.958222-2.958222-40.675556 37.319111 38.058667 38.058667a56.888889 56.888889 0 0 1 0 80.440889l-201.130667 201.130666a56.888889 56.888889 0 0 1-80.469333 0l-120.661333-120.661333a56.888889 56.888889 0 0 1 0-80.469333l201.102222-201.102223a56.888889 56.888889 0 0 1 80.497778 0l42.382222 42.382223z m184.547556-418.673778a14.222222 14.222222 0 0 0-20.110223 20.110222l221.269334 221.269333a14.222222 14.222222 0 0 0 20.110222-20.110222l-221.269333-221.269333z" p-id="26475"></path></svg>