<svg t="1608456027670" class="icon" viewBox="0 0 1024 1024" version="1.1" xmlns="http://www.w3.org/2000/svg" p-id="1365" width="200" height="200"><path d="M960 0H64C28.68 0 0 32.78 0 73.14v146.28c0 40.36 28.68 73.14 64 73.14h896c35.31 0 64-32.78 64-73.14V73.14C1024 32.78 995.31 0 960 0z m0 219.43H64V73.14h896v146.29z m0 146.28H64c-35.32 0-64 32.78-64 73.14v146.28c0 40.36 28.68 73.14 64 73.14h896c35.31 0 64-32.78 64-73.14V438.86c0-40.36-28.69-73.15-64-73.15z m0 219.43H64V438.86h896v146.28z m0 146.29H64c-35.32 0-64 32.78-64 73.14v146.28C0 991.22 28.68 1024 64 1024h896c35.31 0 64-32.78 64-73.14V804.57c0-40.36-28.69-73.14-64-73.14z m0 219.43H64V804.57h896v146.29zM832 147c0-17.67 14.33-32 32-32s32 14.33 32 32-14.33 32-32 32-32-14.33-32-32z m-114-1c0-17.67 14.33-32 32-32s32 14.33 32 32-14.33 32-32 32-32-14.33-32-32z m-114 0c0-17.67 14.33-32 32-32s32 14.33 32 32-14.33 32-32 32-32-14.33-32-32z m228 367c0-17.67 14.33-32 32-32s32 14.33 32 32-14.33 32-32 32-32-14.33-32-32z m-114 0c0-17.67 14.33-32 32-32s32 14.33 32 32-14.33 32-32 32-32-14.33-32-32z m-114 0c0-17.67 14.33-32 32-32s32 14.33 32 32-14.33 32-32 32-32-14.33-32-32z m-114 0c0-17.67 14.33-32 32-32s32 14.33 32 32-14.33 32-32 32-32-14.33-32-32z m342 368c0-17.67 14.33-32 32-32s32 14.33 32 32-14.33 32-32 32-32-14.33-32-32z m-114 0c0-17.67 14.33-32 32-32s32 14.33 32 32-14.33 32-32 32-32-14.33-32-32z" p-id="1366"></path></svg>