<?xml version="1.0" standalone="no"?><!DOCTYPE svg PUBLIC "-//W3C//DTD SVG 1.1//EN" "http://www.w3.org/Graphics/SVG/1.1/DTD/svg11.dtd"><svg t="1562210146036" class="icon" viewBox="0 0 1024 1024" version="1.1" xmlns="http://www.w3.org/2000/svg" p-id="19095" xmlns:xlink="http://www.w3.org/1999/xlink" width="32" height="32"><defs><style type="text/css"></style></defs><path d="M935.113 422.396c24.205-14.462 24.886-25.535 24.886-44.805L959.999 243.194c0-37.116-33.432-67.197-74.673-67.197L138.659 175.997C97.431 175.997 64 206.078 64 243.194l0 134.395c0 20.08 1.551 33.466 24.893 44.805 33.993 14.249 74.652 43.042 74.652 89.604 0 60.426-42.19 80.076-73.189 89.497C68.527 613.786 64 634.024 64 646.394l0 134.397c0 37.127 33.431 67.212 74.659 67.212l746.673 0c41.236 0 74.668-30.089 74.668-67.212L960 646.395c0-24.466-6.245-32.221-24.887-44.804-54.367-25.216-74.667-47.667-74.667-89.591C860.445 470.063 879.455 449.201 935.113 422.396L935.113 422.396M661.333 500.801c0 6.177-5.57 11.199-12.451 11.199L536.886 512l0 44.799 111.996 0c6.881 0 12.451 5.013 12.451 11.2l0 22.4c0 6.185-5.57 11.198-12.451 11.198L536.886 601.597l0 78.404c0 6.18-5.57 11.199-12.444 11.199l-24.893 0c-6.867 0-12.442-5.021-12.442-11.199l0-78.402-111.997-0.001c-6.881 0-12.444-5.015-12.444-11.198l0-22.4c0-6.186 5.563-11.2 12.444-11.2l111.997 0L487.107 512 375.11 512c-6.881 0-12.444-5.022-12.444-11.199l0-22.406c0-6.185 5.563-11.207 12.444-11.207l94.224 0-102.295-98.903c-4.373-4.307-4.373-11.288 0-15.595l15.84-15.591c4.373-4.306 11.467-4.306 15.84 0l113.159 109.415 113.114-109.381c4.406-4.341 11.554-4.341 15.966 0l15.961 15.712c4.412 4.346 4.412 11.381 0 15.719l-102 98.63 93.962 0c6.873 0 12.451 5.016 12.451 11.199L661.332 500.801 661.333 500.801 661.333 500.801M661.333 500.801" p-id="19096"></path></svg>