<?xml version="1.0" standalone="no"?><!DOCTYPE svg PUBLIC "-//W3C//DTD SVG 1.1//EN" "http://www.w3.org/Graphics/SVG/1.1/DTD/svg11.dtd"><svg t="1591760549657" class="icon" viewBox="0 0 1024 1024" version="1.1" xmlns="http://www.w3.org/2000/svg" p-id="1171" xmlns:xlink="http://www.w3.org/1999/xlink" width="32" height="32"><defs><style type="text/css"></style></defs><path d="M748.330667 4.992c14.933333 10.666667 17.066667 29.866667 8.533333 44.8L670.464 170.666667H853.333333c93.866667 0 170.666667 78.762667 170.666667 175.061333v503.210667C1024 945.237333 947.2 1024 853.333333 1024H170.666667c-93.866667 0-170.666667-78.762667-170.666667-175.061333V345.728C0 249.429333 76.8 170.666667 170.666667 170.666667h176.085333L261.930667 51.925333c-10.666667-14.933333-6.4-34.133333 8.533333-44.8s34.133333-8.533333 44.8 6.4l106.666667 149.333334c1.792 2.517333 3.157333 5.12 4.138666 7.850666L593.493333 170.666667a38.4 38.4 0 0 1 3.370667-7.808l106.666667-149.333334c10.666667-14.933333 29.866667-17.066667 44.8-8.533333zM405.333333 430.250667a48.597333 48.597333 0 0 0-21.034666 36.437333L384 472.917333v290.133334c0 19.2 8.533333 36.266667 21.333333 42.666666 4.266667 2.133333 10.666667 4.266667 17.066667 4.266667 9.130667 0 18.304-1.536 26.069333-7.381333l3.797334-3.285334 198.4-138.666666c14.933333-10.666667 23.466667-25.6 23.466666-42.666667 0-15.146667-6.741333-28.629333-18.730666-38.954667l-4.736-3.712-198.4-138.666666c-17.066667-10.666667-34.133333-12.8-46.933334-6.4z" p-id="1172"></path></svg>