<?xml version="1.0" standalone="no"?><!DOCTYPE svg PUBLIC "-//W3C//DTD SVG 1.1//EN" "http://www.w3.org/Graphics/SVG/1.1/DTD/svg11.dtd"><svg t="1562210077504" class="icon" viewBox="0 0 1024 1024" version="1.1" xmlns="http://www.w3.org/2000/svg" p-id="16767" xmlns:xlink="http://www.w3.org/1999/xlink" width="32" height="32"><defs><style type="text/css"></style></defs><path d="M648.533333 136.533333v68.266667a68.266667 68.266667 0 1 0 136.533334 0V136.533333h68.266666a68.266667 68.266667 0 0 1 68.266667 68.266667v580.266667a204.8 204.8 0 0 1-204.8 204.8H170.666667a68.266667 68.266667 0 0 1-68.266667-68.266667V204.8a68.266667 68.266667 0 0 1 68.266667-68.266667h68.266666v68.266667a68.266667 68.266667 0 1 0 136.533334 0V136.533333h273.066666z m-273.066666 273.066667a34.133333 34.133333 0 0 0 0 68.266667h273.066666a34.133333 34.133333 0 0 0 0-68.266667h-273.066666z m0 238.933333a34.133333 34.133333 0 0 0 0 68.266667h273.066666a34.133333 34.133333 0 0 0 0-68.266667h-273.066666z" p-id="16768"></path><path d="M273.066667 34.133333m34.133333 0l0 0q34.133333 0 34.133333 34.133334l0 136.533333q0 34.133333-34.133333 34.133333l0 0q-34.133333 0-34.133333-34.133333l0-136.533333q0-34.133333 34.133333-34.133334Z" p-id="16769"></path><path d="M682.666667 34.133333m34.133333 0l0 0q34.133333 0 34.133333 34.133334l0 136.533333q0 34.133333-34.133333 34.133333l0 0q-34.133333 0-34.133333-34.133333l0-136.533333q0-34.133333 34.133333-34.133334Z" p-id="16770"></path></svg>