<?xml version="1.0" standalone="no"?><!DOCTYPE svg PUBLIC "-//W3C//DTD SVG 1.1//EN" "http://www.w3.org/Graphics/SVG/1.1/DTD/svg11.dtd"><svg t="1562209948017" class="icon" viewBox="0 0 1024 1024" version="1.1" xmlns="http://www.w3.org/2000/svg" p-id="4414" xmlns:xlink="http://www.w3.org/1999/xlink" width="32" height="32"><defs><style type="text/css"></style></defs><path d="M733.866667 384l-187.733334-281.6c-8.533333-8.533333-21.333333-17.066667-34.133333-17.066667s-25.6 4.266667-34.133333 17.066667L290.133333 384H85.333333c-21.333333 0-42.666667 17.066667-42.666666 42.666667v12.8l106.666666 396.8c8.533333 34.133333 42.666667 64 81.066667 64h554.666667c38.4 0 72.533333-25.6 81.066666-64l106.666667-396.8V426.666667c0-25.6-21.333333-42.666667-42.666667-42.666667h-196.266666zM384 384l128-187.733333L640 384H384z m128 341.333333c-46.933333 0-85.333333-38.4-85.333333-85.333333s38.4-85.333333 85.333333-85.333333 85.333333 38.4 85.333333 85.333333-38.4 85.333333-85.333333 85.333333z" p-id="4415"></path></svg>