<?xml version="1.0" standalone="no"?><!DOCTYPE svg PUBLIC "-//W3C//DTD SVG 1.1//EN" "http://www.w3.org/Graphics/SVG/1.1/DTD/svg11.dtd"><svg t="1562210240593" class="icon" viewBox="0 0 1024 1024" version="1.1" xmlns="http://www.w3.org/2000/svg" p-id="25155" xmlns:xlink="http://www.w3.org/1999/xlink" width="32" height="32"><defs><style type="text/css"></style></defs><path d="M221.696 208.128h245.12l-18.176-20.992c-51.584-59.392-117.76-104.832-172.928-118.656-11.648-2.816-22.656-4.352-32.896-4.352-16.64 0-31.104 3.968-43.008 11.776-16.64 11.008-25.216 23.296-26.496 38.4-3.968 40.32 44.288 89.728 44.8 90.112l3.584 3.712zM64 292.736v125.184c0 22.4 18.176 40.832 40.832 40.832h385.28V252.032h-385.28c-22.656 0-40.832 18.176-40.832 40.704z m62.72 250.496v375.936c0 22.4 18.176 40.832 40.832 40.832h322.56V502.656h-322.56c-22.528 0-40.832 18.176-40.832 40.576z m679.296-339.072c4.992-4.992 48.768-51.584 44.8-89.984-1.28-15.104-9.6-27.392-26.496-38.4-11.904-7.936-26.368-11.776-43.008-11.776-10.112 0-21.248 1.536-32.896 4.352-55.296 14.08-121.6 59.392-173.056 118.656l-18.176 20.992h245.248l3.584-3.84z m50.688 298.496H533.888V960h322.688c22.4 0 40.832-18.432 40.832-40.832V543.232c0-22.4-18.432-40.576-40.704-40.576z m62.72-250.624H533.888v206.848h385.408c22.4 0 40.576-18.432 40.576-40.832v-125.184c0.128-22.656-18.048-40.832-40.448-40.832z" p-id="25156"></path></svg>