<?xml version="1.0" standalone="no"?><!DOCTYPE svg PUBLIC "-//W3C//DTD SVG 1.1//EN" "http://www.w3.org/Graphics/SVG/1.1/DTD/svg11.dtd"><svg t="1599616148036" class="icon" viewBox="0 0 1024 1024" version="1.1" xmlns="http://www.w3.org/2000/svg" p-id="2439" xmlns:xlink="http://www.w3.org/1999/xlink" width="64" height="64"><defs><style type="text/css"></style></defs><path d="M883.8 827.5l-19.2-27.7c-5.3-7.7-5.3-17.9 0-25.6l19.2-27.7c4.3-6.1 5.2-14 2.5-21-6-15.2-14.2-29.3-24.2-42-4.7-5.9-12-9.1-19.5-8.5l-33.6 2.8c-9.3 0.8-18.2-4.3-22.2-12.8l-14.4-30.5c-3.2-6.8-9.7-11.6-17.2-12.7-7.9-1.1-15.9-1.7-24.1-1.7s-16.2 0.6-24.1 1.7c-7.5 1.1-14 5.8-17.2 12.7L675.4 665c-4 8.5-12.8 13.6-22.2 12.8l-33.6-2.8c-7.5-0.6-14.8 2.6-19.5 8.5a163.6 163.6 0 0 0-24.2 42c-2.8 7-1.8 14.8 2.5 21l19.2 27.7c5.3 7.7 5.3 17.9 0 25.6l-19.2 27.7c-4.3 6.1-5.2 14-2.5 21 6 15.2 14.2 29.3 24.2 42 4.7 5.9 12 9.1 19.5 8.5l33.6-2.8c9.3-0.8 18.2 4.3 22.2 12.8l14.4 30.5c3.2 6.8 9.7 11.6 17.2 12.7 7.9 1.1 15.9 1.7 24.1 1.7s16.2-0.6 24.1-1.7c7.5-1.1 14-5.8 17.2-12.7l14.4-30.5c4-8.5 12.8-13.6 22.2-12.8l33.6 2.8c7.5 0.6 14.8-2.6 19.5-8.5 10-12.6 18.2-26.7 24.2-42 2.8-7 1.8-14.8-2.5-21zM731.1 852c-35.9 0-65-29.1-65-65s29.1-65 65-65 65 29.1 65 65-29.1 65-65 65z" p-id="2440"></path><path d="M563.7 930.1c-33-38.5-52.9-88.5-52.9-143.1 0-121.5 98.4-219.9 219.8-219.9 49.3 0 94.9 16.3 131.5 43.7V310.9h-0.2V142c0-44-36-80-80-80H216.1c-44 0-80 36-80 80v740c0 44 36 80 80 80h375.2c-10.3-9.6-19.6-20.3-27.6-31.9zM274.1 252h450c13.8 0 25 11.3 25 25 0 13.8-11.2 25-25 25h-450c-13.8 0-25-11.2-25-25 0-13.7 11.2-25 25-25z m0 200h450c13.8 0 25 11.3 25 25 0 13.8-11.2 25-25 25h-450c-13.8 0-25-11.3-25-25s11.2-25 25-25z m160 250h-160c-13.8 0-25-11.3-25-25 0-13.8 11.2-25 25-25h160c13.8 0 25 11.3 25 25 0 13.8-11.2 25-25 25z" p-id="2441"></path></svg>