<?xml version="1.0" standalone="no"?><!DOCTYPE svg PUBLIC "-//W3C//DTD SVG 1.1//EN" "http://www.w3.org/Graphics/SVG/1.1/DTD/svg11.dtd"><svg t="1562211383463" class="icon" viewBox="0 0 1024 1024" version="1.1" xmlns="http://www.w3.org/2000/svg" p-id="27931" xmlns:xlink="http://www.w3.org/1999/xlink" width="32" height="32"><defs><style type="text/css"></style></defs><path d="M696.32 945.493333a430.648889 430.648889 0 0 0 152.462222-102.968889 437.475556 437.475556 0 0 0 36.408889-554.097777L541.013333 543.857778z m205.937778-736.711111a455.111111 455.111111 0 0 0-48.355556-56.888889A418.702222 418.702222 0 0 0 694.613333 56.888889L559.217778 465.92z m-265.671111 728.746667l-153.6-403.342222 135.395555-408.462223a422.115556 422.115556 0 0 0-443.164444 109.795556 436.906667 436.906667 0 0 0 13.084444 611.555556 420.408889 420.408889 0 0 0 448.284445 90.453333z" p-id="27932"></path></svg>